<svg xmlns="http://www.w3.org/2000/svg" viewBox="0 0 755.5 142.4" class="svg-uid-parsed">
  <defs>
    <linearGradient id="0d112__Dégradé_sans_nom" x1="-29.8" x2="157.9" y1="44.2" y2="-34" data-name="Dégradé sans nom" gradientTransform="matrix(1 0 0 -1 0 143.3)" gradientUnits="userSpaceOnUse" class="svg-element-uid-parsed">
      <stop offset="0" stop-color="#ffe400"></stop>
      <stop offset="1" stop-color="#ef7e04"></stop>
    </linearGradient>
    <linearGradient id="0d112__Dégradé_sans_nom_2" x1="-17.6" x2="170.1" y1="73.6" y2="-4.6" data-name="Dégradé sans nom 2" gradientTransform="matrix(1 0 0 -1 0 143.3)" gradientUnits="userSpaceOnUse" class="svg-element-uid-parsed">
      <stop offset="0" stop-color="#ffe400"></stop>
      <stop offset="1" stop-color="#ef7e04"></stop>
    </linearGradient>
    <linearGradient id="0d112__Dégradé_sans_nom_3" x1="24.9" x2="212.5" y1="175.4" y2="97.2" data-name="Dégradé sans nom 3" gradientTransform="matrix(1 0 0 -1 0 143.3)" gradientUnits="userSpaceOnUse" class="svg-element-uid-parsed">
      <stop offset="0" stop-color="#ffe400"></stop>
      <stop offset="1" stop-color="#ef7e04"></stop>
    </linearGradient>
    <linearGradient id="0d112__Dégradé_sans_nom_4" x1="0" x2="187.6" y1="115.6" y2="37.4" data-name="Dégradé sans nom 4" gradientTransform="matrix(1 0 0 -1 0 143.3)" gradientUnits="userSpaceOnUse" class="svg-element-uid-parsed">
      <stop offset="0" stop-color="#ffe400"></stop>
      <stop offset="1" stop-color="#ef7e04"></stop>
    </linearGradient>
    <linearGradient id="0d112__Dégradé_sans_nom_5" x1="-4.4" x2="183.2" y1="105.1" y2="26.9" data-name="Dégradé sans nom 5" gradientTransform="matrix(1 0 0 -1 0 143.3)" gradientUnits="userSpaceOnUse" class="svg-element-uid-parsed">
      <stop offset="0" stop-color="#ffe400"></stop>
      <stop offset="1" stop-color="#ef7e04"></stop>
    </linearGradient>
    <linearGradient id="0d112__Dégradé_sans_nom_6" x1="1457.9" x2="1507.9" y1="7080.7" y2="7080.7" data-name="Dégradé sans nom 6" gradientTransform="translate(-996.9 -7006.2)" gradientUnits="userSpaceOnUse" class="svg-element-uid-parsed">
      <stop offset="0" stop-color="#ffe400"></stop>
      <stop offset="1" stop-color="#ef7e04"></stop>
    </linearGradient>
    <linearGradient id="0d112__Dégradé_sans_nom_7" x1="1593.3" x2="1604.4" y1="7080.7" y2="7080.7" data-name="Dégradé sans nom 7" gradientTransform="translate(-996.9 -7006.2)" gradientUnits="userSpaceOnUse" class="svg-element-uid-parsed">
      <stop offset="0" stop-color="#ffe400"></stop>
      <stop offset="1" stop-color="#ef7e04"></stop>
    </linearGradient>
    <linearGradient id="0d112__Dégradé_sans_nom_8" x1="1457.9" x2="1507.9" y1="7080.7" y2="7080.7" data-name="Dégradé sans nom 8" gradientTransform="translate(-996.9 -7006.2)" gradientUnits="userSpaceOnUse" class="svg-element-uid-parsed">
      <stop offset="0" stop-color="#ffe400"></stop>
      <stop offset="1" stop-color="#ef7e04"></stop>
    </linearGradient>
    <linearGradient id="0d112__Dégradé_sans_nom_9" x1="1593.3" x2="1604.4" y1="7080.7" y2="7080.7" data-name="Dégradé sans nom 9" gradientTransform="translate(-996.9 -7006.2)" gradientUnits="userSpaceOnUse" class="svg-element-uid-parsed">
      <stop offset="0" stop-color="#ffe400"></stop>
      <stop offset="1" stop-color="#ef7e04"></stop>
    </linearGradient>
    <linearGradient id="0d112__Dégradé_sans_nom_10" x1="223.1" x2="502.2" y1="23.3" y2="23.9" data-name="Dégradé sans nom 10" gradientTransform="matrix(1 0 0 -1 0 143.3)" gradientUnits="userSpaceOnUse" class="svg-element-uid-parsed">
      <stop offset="0" stop-color="#ffe400"></stop>
      <stop offset="1" stop-color="#ef7e04"></stop>
    </linearGradient>
    <linearGradient id="0d112__Dégradé_sans_nom_11" x1="236.9" x2="516" y1="22.7" y2="23.3" data-name="Dégradé sans nom 11" gradientTransform="matrix(1 0 0 -1 0 143.3)" gradientUnits="userSpaceOnUse" class="svg-element-uid-parsed">
      <stop offset="0" stop-color="#ffe400"></stop>
      <stop offset="1" stop-color="#ef7e04"></stop>
    </linearGradient>
    <linearGradient id="0d112__Dégradé_sans_nom_12" x1="249.7" x2="528.8" y1="22.6" y2="23.2" data-name="Dégradé sans nom 12" gradientTransform="matrix(1 0 0 -1 0 143.3)" gradientUnits="userSpaceOnUse" class="svg-element-uid-parsed">
      <stop offset="0" stop-color="#ffe400"></stop>
      <stop offset="1" stop-color="#ef7e04"></stop>
    </linearGradient>
    <linearGradient id="0d112__Dégradé_sans_nom_13" x1="262.4" x2="541.5" y1="22.6" y2="23.2" data-name="Dégradé sans nom 13" gradientTransform="matrix(1 0 0 -1 0 143.3)" gradientUnits="userSpaceOnUse" class="svg-element-uid-parsed">
      <stop offset="0" stop-color="#ffe400"></stop>
      <stop offset="1" stop-color="#ef7e04"></stop>
    </linearGradient>
    <linearGradient id="0d112__Dégradé_sans_nom_14" x1="275.2" x2="554.3" y1="22.5" y2="23.1" data-name="Dégradé sans nom 14" gradientTransform="matrix(1 0 0 -1 0 143.3)" gradientUnits="userSpaceOnUse" class="svg-element-uid-parsed">
      <stop offset="0" stop-color="#ffe400"></stop>
      <stop offset="1" stop-color="#ef7e04"></stop>
    </linearGradient>
    <linearGradient id="0d112__Dégradé_sans_nom_15" x1="289" x2="568.1" y1="22.4" y2="23.1" data-name="Dégradé sans nom 15" gradientTransform="matrix(1 0 0 -1 0 143.3)" gradientUnits="userSpaceOnUse" class="svg-element-uid-parsed">
      <stop offset="0" stop-color="#ffe400"></stop>
      <stop offset="1" stop-color="#ef7e04"></stop>
    </linearGradient>
    <linearGradient id="0d112__Dégradé_sans_nom_16" x1="306" x2="585.1" y1="22.3" y2="23" data-name="Dégradé sans nom 16" gradientTransform="matrix(1 0 0 -1 0 143.3)" gradientUnits="userSpaceOnUse" class="svg-element-uid-parsed">
      <stop offset="0" stop-color="#ffe400"></stop>
      <stop offset="1" stop-color="#ef7e04"></stop>
    </linearGradient>
    <linearGradient id="0d112__Dégradé_sans_nom_17" x1="318.7" x2="597.8" y1="22.8" y2="23.5" data-name="Dégradé sans nom 17" gradientTransform="matrix(1 0 0 -1 0 143.3)" gradientUnits="userSpaceOnUse" class="svg-element-uid-parsed">
      <stop offset="0" stop-color="#ffe400"></stop>
      <stop offset="1" stop-color="#ef7e04"></stop>
    </linearGradient>
    <linearGradient id="0d112__Dégradé_sans_nom_18" x1="331.5" x2="610.6" y1="22.8" y2="23.4" data-name="Dégradé sans nom 18" gradientTransform="matrix(1 0 0 -1 0 143.3)" gradientUnits="userSpaceOnUse" class="svg-element-uid-parsed">
      <stop offset="0" stop-color="#ffe400"></stop>
      <stop offset="1" stop-color="#ef7e04"></stop>
    </linearGradient>
    <linearGradient id="0d112__Dégradé_sans_nom_19" x1="344.2" x2="623.3" y1="22.1" y2="22.8" data-name="Dégradé sans nom 19" gradientTransform="matrix(1 0 0 -1 0 143.3)" gradientUnits="userSpaceOnUse" class="svg-element-uid-parsed">
      <stop offset="0" stop-color="#ffe400"></stop>
      <stop offset="1" stop-color="#ef7e04"></stop>
    </linearGradient>
  </defs>





















  <g id="svg-wrapper-1ibjjdihr01ea21377fc34a" class="svg-element-uid-parsed"><path fill="url(#0d112__Dégradé_sans_nom)" d="M82 119l-70.3 6.1c-4.7.4-8.2 4.6-7.8 9.3l.5 5.6 70.3-6.1c4.7-.4 8.2-4.6 7.8-9.3L82 119z"></path><path fill="url(#0d112__Dégradé_sans_nom_2)" d="M27.2 93c-1.8 2.5-3.5 3-6.4 2-2.5-.9-5-1.7-7.4-2.6 8.6 8.2 20.5 12.8 33.3 11.6 4.5-.4 8.8-1.5 12.8-3.2-.1-.1-.2-.3-.3-.4-3.1-4.8-6.2-9.7-9.3-14.6-.6-1-1.3-1.5-2.4-1.8-4.8-1.4-9.7-2.9-14.5-4.3 0 .5.5.6.8.8 1.7 1.1 1.7 1.1.6 2.7-2.4 3.3-4.7 6.6-7.1 9.9z"></path><path fill="url(#0d112__Dégradé_sans_nom_3)" d="M105 27.1l66.4-5.8c4.7-.4 8.2-4.6 7.8-9.3l-.5-5.6-66.4 5.8c-4.7.4-8.2 4.6-7.8 9.3l.5 5.6z"></path><path fill="url(#0d112__Dégradé_sans_nom_4)" d="M91 14l-51.7 4.5C15.6 20.6-1.9 41.4.2 65 .7 70.9 2.4 76.3 5 81.3c4.4.9 8.8 1.9 13.2 2.8 2.2.5 2.2.5 3.3-1.4 4.2-7.3 8.6-14.6 12.1-22.3 0-.1.1-.3.2-.4.8-2.4 1.5-4.8 5.3-3.8l-.3-.6c-2.7-.2-5.4-.5-8.1-.7-1.1 0-2.6-.7-3.3 0-.7.7-.7 2.1-.9 3.3L25 65.4c-.3 1.4-1.2 2.3-2.7 2.5-1.4.3-2.6-.2-3.4-1.3-.6-.8-.8-1.7-.6-2.6.7-4.8 1.3-9.5 2.1-14.3.3-1.9 1.6-3.1 3.6-3.1 6.9-.2 13.8-.5 20.6-.5 2.8 0 5.2 1.2 6.3 4.2 1.3 3.2 2.8 6.3 4.1 9.6.5 1.4 1.3 1.8 2.7 1.8 3 0 6.1.1 9.1.3 2.3 0 3.8 1.4 3.8 3.4s-1.5 3.4-3.8 3.5c-4.4.2-8.9.3-13.3.4-2.8 0-4.5-1.8-4.2-4.5V62c-.8 3.2-2.2 6.2-3.5 9.2-.3.8.1.9.6 1.1l7.8 3.3c1.4.6 2.4 1.5 3 2.9 2.9 6 5.8 12.1 8.7 18.1.2.4.3.7.4 1.1 13-8.3 21.1-23.4 19.6-39.9-1-10.9-6-20.6-13.4-27.6l11.3-1c4.7-.4 8.2-4.6 7.8-9.3l-.5-5.6zM53 47c-4.9 0-8.8-4-8.9-9.1 0-5.2 3.9-9.4 8.9-9.4 4.8 0 8.8 4.2 8.8 9.2 0 5.2-3.9 9.3-8.8 9.3z"></path><path fill="url(#0d112__Dégradé_sans_nom_5)" d="M180.1 85.8c-1.9-20.6-19.4-36.2-40.2-35.3l.6 14.3c13.1-.5 24.3 9.3 25.4 22.4 1.1 13.4-8.8 25.4-22.3 26.5l-40.3 3.5c-4.7.4-8.2 4.6-7.8 9.3l.5 5.6 48.9-4.2c21.3-1.9 37.1-20.8 35.2-42z"></path><path fill="url(#0d112__Dégradé_sans_nom_6)" d="M461 69h49.9v11.1H461z"></path><path fill="url(#0d112__Dégradé_sans_nom_7)" d="M596.4 69h11.1v11.1h-11.1z"></path><path fill="url(#0d112__Dégradé_sans_nom_8)" d="M461 69h49.9v11.1H461z"></path><path fill="url(#0d112__Dégradé_sans_nom_9)" d="M596.4 69h11.1v11.1h-11.1z"></path><g fill="#fff">
    <path d="M289.1 34.6V66l-1.4 1.6c-7.5 8-17.8 12.5-28.7 12.5h-1.8c-21.6 0-39.1-17.5-39.1-39.1v-1.6c0-21.6 17.5-39.1 39.1-39.1h1.8c11.1 0 21.4 4.6 28.9 12.7l-8.2 7.5c-5.4-5.9-12.8-9.1-20.7-9.1h-1.8c-15.5 0-28 12.5-28 28V41c0 15.5 12.5 28 28 28h1.8c7.1 0 13.9-2.7 19.1-7.5V34.6h11.1zM582.3 58c0 5.5-2.3 10.7-6.2 14.4-5.2 5-12.1 7.7-19.3 7.7h-3.9c-14.1 0-25.3-9.8-25.3-21.9h11.1c0 5.9 6.4 10.7 14.3 10.9h3.7c4.3.2 8.4-1.4 11.6-4.3 1.8-1.6 2.9-3.9 2.9-6.4v-.2c0-4.5-3.7-8.4-9.1-10L544.8 43c-10.2-3-17.1-11.4-17.1-20.7S539 .4 553.1.4h3.7c14.1 0 25.5 9.8 25.5 21.9h-11.1c0-5.9-6.6-10.9-14.4-10.9h-3.7c-7.8 0-14.4 5-14.4 10.9s3.7 8.4 9.1 10l17.3 5.2c10.3 2.9 17.3 11.2 17.3 20.5zM309 80.1h-11.8L324 0h11.8l26.8 80.1h-11.8l-20.9-62.4L309 80.1zm383.4-40c0 22.1-17.8 40-40 40h-27.6V.2h27.6c21.9 0 40 17.8 40 40zm-11.3 0c0-15.9-12.8-28.9-28.9-28.9h-16.6V69h16.6c16.1 0 28.9-13 28.9-28.9zm35.5-28.9v23.4h28.9v11.1h-28.9v23.4h38.9v11.1h-49.9V.2h49.9v11.1h-38.9zM596.4 58V.2h11.1V58h-11.1z"></path>
    <path d="M289.1 34.6V66l-1.4 1.6c-7.5 8-17.8 12.5-28.7 12.5h-1.8c-21.6 0-39.1-17.5-39.1-39.1v-1.6c0-21.6 17.5-39.1 39.1-39.1h1.8c11.1 0 21.4 4.6 28.9 12.7l-8.2 7.5c-5.4-5.9-12.8-9.1-20.7-9.1h-1.8c-15.5 0-28 12.5-28 28V41c0 15.5 12.5 28 28 28h1.8c7.1 0 13.9-2.7 19.1-7.5V34.6h11.1zM582.3 58c0 5.5-2.3 10.7-6.2 14.4-5.2 5-12.1 7.7-19.3 7.7h-3.9c-14.1 0-25.3-9.8-25.3-21.9h11.1c0 5.9 6.4 10.7 14.3 10.9h3.7c4.3.2 8.4-1.4 11.6-4.3 1.8-1.6 2.9-3.9 2.9-6.4v-.2c0-4.5-3.7-8.4-9.1-10L544.8 43c-10.2-3-17.1-11.4-17.1-20.7S539 .4 553.1.4h3.7c14.1 0 25.5 9.8 25.5 21.9h-11.1c0-5.9-6.6-10.9-14.4-10.9h-3.7c-7.8 0-14.4 5-14.4 10.9s3.7 8.4 9.1 10l17.3 5.2c10.3 2.9 17.3 11.2 17.3 20.5zM309 80.1h-11.8L324 0h11.8l26.8 80.1h-11.8l-20.9-62.4L309 80.1zm383.4-40c0 22.1-17.8 40-40 40h-27.6V.2h27.6c21.9 0 40 17.8 40 40zm-11.3 0c0-15.9-12.8-28.9-28.9-28.9h-16.6V69h16.6c16.1 0 28.9-13 28.9-28.9zm35.5-28.9v23.4h28.9v11.1h-28.9v23.4h38.9v11.1h-49.9V.2h49.9v11.1h-38.9zM596.4 58V.2h11.1V58h-11.1zM511 11.2V.2h-50V58h50V46.7h-38.9V34.6H501V23.5h-28.9V11.2H511zM432.5 0l-24.1 61-24.1-61h-11.4v65.3l4.8 14.8h6.3V29.3l24.4 61.8 24.4-61.8v50.8h11.1V0h-11.4z"></path>
  </g><path fill="url(#0d112__Dégradé_sans_nom_10)" d="M220.5 132h3.1l2.9-6.9h9.3l2.9 6.9h3.1l-10.7-24.2-10.7 24.2zm14.2-9.5h-7l3.5-8.3 3.5 8.3z"></path><path fill="url(#0d112__Dégradé_sans_nom_11)" d="M273.7 108.7c-1.6 0-3.1.3-4.5.9-1.4.6-2.6 1.4-3.7 2.5s-1.9 2.3-2.5 3.8c-.6 1.4-.9 3-.9 4.7s.3 3.3.9 4.7c.6 1.4 1.4 2.7 2.5 3.8 1.1 1.1 2.3 1.9 3.7 2.5 1.4.6 2.9.9 4.5.9s3.1-.2 4.2-.6c1.1-.4 2.2-1.1 3.2-1.9v-3.7c-.5.7-1.2 1.3-1.9 1.8s-1.6.9-2.5 1.2c-.9.3-1.9.4-3 .4s-2.9-.4-4.2-1.2c-1.3-.8-2.3-1.8-3.1-3.2-.8-1.4-1.2-2.9-1.2-4.7s.4-3.4 1.2-4.7c.8-1.3 1.8-2.4 3.1-3.2 1.3-.8 2.7-1.2 4.2-1.2s2.1.1 3 .4c.9.3 1.7.7 2.5 1.2.7.5 1.4 1.1 1.9 1.8v-3.7c-1-.9-2-1.5-3.2-1.9-1.1-.4-2.6-.6-4.2-.6z"></path><path fill="url(#0d112__Dégradé_sans_nom_12)" d="M301.5 111.6h6V132h2.8v-20.4h5.9V109h-14.7v2.6z"></path><path fill="url(#0d112__Dégradé_sans_nom_13)" d="M337.9 109h2.8v23h-2.8z"></path><path fill="url(#0d112__Dégradé_sans_nom_14)" d="M383.5 112.1c-1.1-1.1-2.3-1.9-3.7-2.5-1.4-.6-3-.9-4.7-.9s-3.2.3-4.6.9c-1.4.6-2.7 1.4-3.7 2.5-1.1 1.1-1.9 2.3-2.5 3.8-.6 1.4-.9 3-.9 4.7s.3 3.2.9 4.7c.6 1.4 1.4 2.7 2.5 3.8 1.1 1.1 2.3 1.9 3.7 2.5 1.4.6 3 .9 4.6.9s3.2-.3 4.7-.9c1.4-.6 2.6-1.4 3.7-2.5s1.9-2.3 2.5-3.8c.6-1.4.9-3 .9-4.7s-.3-3.3-.9-4.7c-.6-1.4-1.4-2.7-2.5-3.8zm-.8 13.1c-.8 1.4-1.8 2.4-3.1 3.2-1.3.8-2.8 1.2-4.5 1.2s-3.2-.4-4.5-1.2c-1.3-.8-2.4-1.9-3.1-3.2-.8-1.4-1.1-2.9-1.1-4.6s.4-3.3 1.1-4.6c.8-1.4 1.8-2.4 3.1-3.2 1.3-.8 2.8-1.2 4.5-1.2s3.2.4 4.5 1.2c1.3.8 2.3 1.9 3.1 3.2.8 1.4 1.1 2.9 1.1 4.6s-.4 3.3-1.1 4.6z"></path><path fill="url(#0d112__Dégradé_sans_nom_15)" d="M428 126.1l-17.4-18.3V132h2.8v-17.1l17.4 18.3V109H428v17.1z"></path><path fill="url(#0d112__Dégradé_sans_nom_16)" d="M485.7 123h7.7c-.2.9-.5 1.7-.9 2.5s-1 1.5-1.6 2.1c-.7.6-1.4 1.1-2.4 1.4-.9.3-1.9.5-3.1.5-1.6 0-3.1-.4-4.4-1.2-1.3-.8-2.4-1.8-3.1-3.2-.8-1.4-1.2-2.9-1.2-4.7s.4-3.4 1.2-4.7c.8-1.3 1.8-2.4 3.1-3.2 1.3-.8 2.8-1.2 4.4-1.2s3.3.3 4.6 1c1.3.7 2.3 1.7 3 2.9l2-1.8c-.7-1.1-1.5-2-2.4-2.7-1-.7-2-1.3-3.2-1.6-1.2-.4-2.5-.6-3.9-.6s-3.2.3-4.6.9c-1.4.6-2.7 1.4-3.7 2.5-1.1 1.1-1.9 2.3-2.5 3.8-.6 1.4-.9 3-.9 4.7s.3 3.3.9 4.7c.6 1.4 1.4 2.7 2.5 3.8 1.1 1.1 2.3 1.9 3.7 2.5 1.4.6 3 .9 4.6.9s3.3-.3 4.7-1c1.4-.6 2.5-1.5 3.5-2.6.9-1.1 1.7-2.4 2.1-3.8.5-1.4.7-3 .7-4.6h-10.7v2.6z"></path><path fill="url(#0d112__Dégradé_sans_nom_17)" d="M515.8 132h3.1l2.9-6.9h9.3l2.9 6.9h3.1l-10.7-24.2-10.7 24.2zm14.2-9.5h-7l3.5-8.3 3.5 8.3z"></path><path fill="url(#0d112__Dégradé_sans_nom_18)" d="M569.5 124.5l-9.3-16.7-2.8 24.2h2.8l1.8-15.5 7.5 13.4 7.5-13.4 1.7 15.5h2.8l-2.8-24.2-9.2 16.7z"></path><path fill="url(#0d112__Dégradé_sans_nom_19)" d="M617.3 111.6V109h-13.1v23h13.1v-2.6H607v-8.6h9.7v-2.6H607v-6.6h10.3z"></path><path fill="#ef7e04" d="M755.5 119.4l-30.4-1.5h-17.5c-.6 0-1.2.4-1.4.9l-1.9 4.5-1.5-5.1-1.9-6.6-1.9-6.6-.9-3c-.2-.7-.8-1.1-1.5-1.1s-1.3.4-1.5 1.1l-1.9 6-1.5 4.8-3 9.6-1.5 4.8-2.5 8-.9-3.7-3.1-13.1c-.2-.7-.7-1.1-1.4-1.2-.7 0-1.3.4-1.5 1l-1.9 5-3.1-8.2c-.2-.5-.7-.9-1.3-1-.6 0-1.1.2-1.5.7l-2.2 3.4h-.6l-28.9.2v2.6l28.9.2h1.4c.5 0 1-.3 1.3-.7l.9-1.5 3.4 9.1c.2.6.8 1 1.4 1 .6 0 1.2-.4 1.4-1l1.6-4.2 2 8.3 2.2 9.1c.2.7.8 1.2 1.4 1.2.7 0 1.3-.4 1.5-1.1l4.2-13.3 1.5-4.8 3-9.6 1.5-4.8.3-1.1 1.4 4.7 2 6.6 2.7 9.2c.2.6.7 1.1 1.4 1.1.6 0 1.2-.3 1.5-.9l1.1-2.4 2.1-5h16.5l30.4-1.6z"></path></g></svg>
