<?xml version="1.0" encoding="UTF-8"?>
<svg id="Calque_1" data-name="Calque 1" xmlns="http://www.w3.org/2000/svg" xmlns:xlink="http://www.w3.org/1999/xlink" viewBox="0 0 884.66 230.43">
  <defs>
    <linearGradient id="Nouvelle_nuance_de_dégradé_1" data-name="Nouvelle nuance de dégradé 1" x1="37.19" y1="199.09" x2="154.96" y2="199.09" gradientUnits="userSpaceOnUse">
      <stop offset="0" stop-color="#ffe400"/>
      <stop offset="1" stop-color="#ef7e04"/>
    </linearGradient>
    <linearGradient id="Nouvelle_nuance_de_dégradé_1-2" data-name="Nouvelle nuance de dégradé 1" x1="0" y1="106.49" x2="233.68" y2="106.49" xlink:href="#Nouvelle_nuance_de_dégradé_1"/>
  </defs>
  <path d="M576.95,136.16h-66.59v17.24h66.59v-17.24h0Z" style="fill: #f49c03;"/>
  <path d="M695.83,136.12h-15.65v17.25h17.25v-17.25h-1.6Z" style="fill: #f49c03;"/>
  <path d="M630.69,48.91h-4.76c-18.75,0-34,13.22-34,29.47,0,12.55,9.2,23.73,22.89,27.81l21.97,6.57c6.23,1.87,10.41,6.35,10.41,11.15v.23c0,2.66-1.13,5.19-3.09,6.96-3.66,3.25-8.22,5.04-12.83,5.04-.25,0-.5,0-.75-.02h-.03s-.03,0-.03,0h-4.76c-9.09-.21-16.52-5.69-16.52-12.22v-1.6h-17.25v1.6c0,7.93,3.52,15.36,9.92,20.92,6.35,5.51,14.82,8.55,23.85,8.55h4.98c9.69,0,18.77-3.62,25.58-10.19,5.35-5.1,8.42-12.21,8.42-19.5,0-6.18-2.23-12.1-6.43-17.11-4.2-5-9.98-8.62-16.72-10.48l-21.94-6.56c-6.23-1.87-10.41-6.35-10.41-11.15,0-6.62,7.67-12.22,16.75-12.22h4.76c9.08,0,16.75,5.59,16.75,12.22v1.6h17.25v-1.6c0-16.25-15.25-29.47-34-29.47h0Z" style="fill: #fff;"/>
  <path d="M884.66,48.68h-66.64v104.69h66.64v-17.25h-49.38v-26.47h36.7v-17.25h-36.7v-26.47h49.38v-17.25h0Z" style="fill: #fff;"/>
  <path d="M697.43,48.68h-17.25v76.6h17.25V48.68h0Z" style="fill: #fff;"/>
  <path d="M575.35,48.78h-64.99v76.55h66.59v-17.46h-49.35v-12.19h36.67v-17.24h-36.67v-12.42h49.35v-17.24h-1.6Z" style="fill: #fff;"/>
  <path d="M490.23,48.55h-15.58l-.4,1.01-29.07,73.65-29.07-73.65-.4-1.01h-17.18v84.71l.08.24,6.11,18.79.36,1.11h10.69v-57.7l27.92,70.72,1.49,3.77,1.49-3.77,27.92-70.72v57.7h17.24V48.55h-1.6Z" style="fill: #fff;"/>
  <path d="M388.52,151.29l-33.96-101.64-.37-1.09h-17.25l-.37,1.09-33.96,101.64-.7,2.11h18.32l.37-1.09,24.97-74.69,24.97,74.69.37,1.09h18.32l-.7-2.11Z" style="fill: #fff;"/>
  <path d="M293.73,92.47h-15.64v35.08c-6.22,5.56-14.22,8.61-22.62,8.61h-2.26c-18.71,0-33.94-15.23-33.94-33.94v-2.04c0-18.71,15.23-33.94,33.94-33.94h2.26c9.57,0,18.71,4.02,25.07,11.02l1.08,1.19,1.19-1.08,10.41-9.51,1.2-1.09-1.1-1.18c-9.98-10.69-23.42-16.58-37.84-16.58h-2.26c-28.22,0-51.18,22.96-51.18,51.18v2.04c0,28.22,22.96,51.18,51.18,51.18h2.26c14.21,0,27.92-5.96,37.62-16.36l1.84-2.07.4-.45v-42.05h-1.6Z" style="fill: #fff;"/>
  <path d="M751.32,48.68h-36.72v104.69h36.72c14.01,0,27.17-5.44,37.04-15.31,9.87-9.87,15.31-23.03,15.31-37.04,0-28.86-23.48-52.35-52.35-52.35ZM751.09,136.12h-19.47v-70.19h19.47c19.35,0,35.1,15.74,35.1,35.1s-15.74,35.1-35.1,35.1Z" style="fill: #fff;"/>
  <g>
    <g>
      <path d="M265.17,181.33l-1.12-2.52-1.12,2.52-16.17,36.56-.76,1.71h7.41l.32-.75,4.1-9.7h12.41l4.12,9.7.32.74h7.41l-.76-1.71-16.17-36.56ZM260.58,202.74l3.48-8.19,3.49,8.19h-6.97Z" style="fill: #f49c03;"/>
      <path d="M335.19,182.86c-1.85-.68-4.15-1.02-6.84-1.02s-5.01.48-7.26,1.41c-2.24.94-4.24,2.28-5.94,4-1.7,1.72-3.04,3.77-3.99,6.09-.95,2.33-1.43,4.89-1.43,7.63s.48,5.3,1.43,7.62c.95,2.33,2.3,4.38,3.99,6.09,1.7,1.72,3.7,3.06,5.94,4,2.25.94,4.69,1.41,7.26,1.41s4.98-.34,6.84-1.02c1.86-.68,3.6-1.73,5.17-3.12l.41-.36v-9.69l-2.19,2.82c-.71.92-1.59,1.75-2.61,2.45-1.02.71-2.17,1.26-3.43,1.65-1.25.39-2.66.59-4.19.59-2.06,0-3.99-.53-5.74-1.57-1.77-1.05-3.22-2.53-4.32-4.39-1.09-1.85-1.65-4.04-1.65-6.49s.55-4.68,1.64-6.51c1.1-1.85,2.55-3.32,4.32-4.37,1.76-1.04,3.69-1.57,5.74-1.57,1.52,0,2.93.2,4.19.59,1.25.39,2.4.95,3.43,1.65,1.02.71,1.9,1.53,2.61,2.45l2.19,2.82v-9.69l-.41-.36c-1.57-1.39-3.3-2.44-5.17-3.12Z" style="fill: #f49c03;"/>
      <polygon points="370.41 182.34 369.19 182.34 369.19 183.56 369.19 187.54 369.19 188.76 370.41 188.76 378.14 188.76 378.14 218.38 378.14 219.6 379.36 219.6 383.59 219.6 384.81 219.6 384.81 218.38 384.81 188.76 392.54 188.76 393.76 188.76 393.76 187.54 393.76 183.56 393.76 182.34 392.54 182.34 370.41 182.34" style="fill: #f49c03;"/>
      <polygon points="425.39 182.34 424.17 182.34 424.17 183.56 424.17 218.38 424.17 219.6 425.39 219.6 429.62 219.6 430.84 219.6 430.84 218.38 430.84 183.56 430.84 182.34 429.62 182.34 425.39 182.34" style="fill: #f49c03;"/>
      <path d="M495.12,187.36c-1.7-1.71-3.71-3.07-5.98-4.04-2.28-.97-4.81-1.47-7.52-1.47s-5.19.49-7.49,1.46c-2.29.97-4.31,2.33-6.01,4.05-1.7,1.72-3.03,3.76-3.97,6.07-.93,2.31-1.41,4.85-1.41,7.55s.47,5.19,1.41,7.52c.93,2.33,2.27,4.38,3.97,6.1,1.7,1.71,3.72,3.08,6.01,4.05,2.3.97,4.82,1.46,7.49,1.46s5.24-.49,7.52-1.47c2.28-.97,4.29-2.33,5.98-4.04,1.7-1.72,3.03-3.77,3.97-6.1.93-2.33,1.41-4.85,1.41-7.52s-.47-5.24-1.41-7.55c-.94-2.31-2.27-4.36-3.97-6.07ZM481.62,213.43c-2.28,0-4.35-.54-6.14-1.62-1.79-1.08-3.23-2.56-4.26-4.42-1.04-1.86-1.56-4.02-1.56-6.42s.53-4.56,1.56-6.42c1.03-1.86,2.47-3.34,4.26-4.42,1.79-1.07,3.85-1.62,6.14-1.62s4.39.54,6.16,1.61c1.78,1.08,3.21,2.57,4.24,4.42,1.04,1.86,1.56,4.02,1.56,6.42s-.53,4.56-1.56,6.42c-1.03,1.86-2.46,3.35-4.24,4.42-1.77,1.07-3.84,1.61-6.16,1.61Z" style="fill: #f49c03;"/>
      <polygon points="561.58 182.34 560.36 182.34 560.36 183.56 560.36 206.43 536.1 180.98 534 178.77 534 181.82 534 218.38 534 219.6 535.22 219.6 539.45 219.6 540.67 219.6 540.67 218.38 540.67 195.52 564.93 220.96 567.03 223.17 567.03 220.12 567.03 183.56 567.03 182.34 565.81 182.34 561.58 182.34" style="fill: #f49c03;"/>
      <path d="M648.75,199.5h-1.22v6.42h11.2c-.24.7-.54,1.38-.89,2.03-.58,1.07-1.33,2.04-2.22,2.87-.87.81-1.93,1.46-3.15,1.91-1.23.46-2.65.69-4.22.69-2.22,0-4.26-.53-6.05-1.57-1.79-1.05-3.24-2.52-4.31-4.38-1.07-1.86-1.61-4.05-1.61-6.51s.54-4.69,1.6-6.53c1.06-1.84,2.51-3.31,4.31-4.36,1.79-1.04,3.83-1.57,6.05-1.57,2.44,0,4.57.48,6.34,1.42,1.75.93,3.13,2.24,4.1,3.9l.77,1.3,1.11-1.02,2.98-2.74.74-.68-.53-.86c-1.07-1.75-2.4-3.23-3.96-4.41-1.55-1.17-3.31-2.08-5.25-2.68-1.92-.6-4.04-.9-6.31-.9-2.67,0-5.18.47-7.47,1.41-2.3.94-4.33,2.28-6.03,4-1.7,1.72-3.04,3.77-3.97,6.1-.93,2.32-1.41,4.89-1.41,7.62s.47,5.29,1.41,7.62c.93,2.33,2.27,4.38,3.97,6.1,1.7,1.72,3.73,3.07,6.03,4,2.29.93,4.81,1.41,7.47,1.41,2.82,0,5.38-.53,7.61-1.58,2.22-1.05,4.13-2.5,5.66-4.32,1.52-1.8,2.68-3.88,3.46-6.19.77-2.29,1.16-4.74,1.16-7.28v-1.22h-17.39Z" style="fill: #f49c03;"/>
      <path d="M711.57,181.33l-1.12-2.52-1.12,2.52-16.17,36.56-.76,1.71h7.41l.32-.75,4.1-9.7h12.41l4.12,9.7.32.74h7.41l-.76-1.71-16.17-36.56ZM706.97,202.74l3.48-8.19,3.49,8.19h-6.97Z" style="fill: #f49c03;"/>
      <polygon points="790.52 181.68 790.08 177.9 788.24 181.23 775.38 204.52 762.52 181.23 760.68 177.9 760.24 181.68 756.01 218.24 755.86 219.6 757.23 219.6 761.45 219.6 762.55 219.6 762.67 218.51 764.84 198.78 774.32 215.74 775.38 217.65 776.45 215.74 785.93 198.78 788.09 218.51 788.21 219.6 789.31 219.6 793.54 219.6 794.91 219.6 794.75 218.24 790.52 181.68" style="fill: #f49c03;"/>
      <polygon points="847.77 182.34 832.11 182.34 830.21 182.34 827.88 182.34 826.66 182.34 826.66 183.56 826.66 218.38 826.66 219.6 827.88 219.6 830.21 219.6 832.11 219.6 847.77 219.6 848.99 219.6 848.99 218.38 848.99 214.4 848.99 213.18 847.77 213.18 833.33 213.18 833.33 202.69 846.78 202.69 848 202.69 848 201.47 848 197.49 848 196.27 846.78 196.27 833.33 196.27 833.33 188.76 847.77 188.76 848.99 188.76 848.99 187.54 848.99 183.56 848.99 182.34 847.77 182.34" style="fill: #f49c03;"/>
    </g>
    <g>
      <path d="M130.44,183.52c-1.54-2.46-3.35-3.9-6.15-4.71-12.37-3.56-24.68-7.33-37.13-11.06.17,1.31,1.25,1.5,1.97,1.96,4.35,2.8,4.36,2.78,1.43,6.88-6.01,8.4-12.02,16.8-18.04,25.19-4.5,6.27-9,7.73-16.3,5.18-6.35-2.22-12.69-4.46-19.03-6.68,21.98,20.89,52.42,32.63,85,29.71,11.58-1.04,22.58-3.84,32.77-8.1-.26-.33-.52-.68-.76-1.05-8.01-12.39-15.95-24.82-23.77-37.33Z" style="fill: url(#Nouvelle_nuance_de_dégradé_1);"/>
      <path d="M185.73,102.22v-2.14c0-15.65,5.38-30.06,14.37-41.51-4.49-6.54-9.66-12.55-15.41-17.91l28.91-2.54c12.07-.95,20.97-11.75,20.01-23.82l-1.27-14.3L100.19,11.44C39.83,16.84-4.96,69.89.44,130.24c1.34,14.97,5.62,28.99,12.21,41.51,11.23,2.34,22.44,4.82,33.65,7.26,5.56,1.21,5.57,1.26,8.39-3.65,10.78-18.74,21.97-37.25,31.02-56.94.15-.33.31-.67.43-1.02,2-6.15,3.96-12.35,13.43-9.61-.26-.55-.52-1.1-.77-1.64-6.92-.63-13.84-1.37-20.78-1.85-2.91-.2-6.63-1.91-8.51-.14-1.79,1.68-1.68,5.45-2.3,8.32-1.33,6.13-2.5,12.29-3.92,18.39-.83,3.52-3.19,5.82-6.8,6.47-3.55.64-6.56-.46-8.79-3.39-1.5-1.97-1.94-4.25-1.6-6.64,1.72-12.17,3.4-24.35,5.29-36.5.75-4.82,4.21-7.8,9.25-7.97,17.58-.59,35.16-1.27,52.74-1.35,7.26-.03,13.19,3.12,16.15,10.62,3.25,8.22,7.2,16.17,10.43,24.4,1.35,3.45,3.25,4.51,6.8,4.5,7.74-.02,15.49.37,23.23.66,5.97.23,9.77,3.7,9.79,8.79.02,5.12-3.82,8.78-9.68,8.99-11.31.4-22.62.73-33.93.99-7.14.16-11.39-4.51-10.83-11.59.19-2.37.24-4.75-.11-7.21-2.12,8.24-5.65,15.87-8.85,23.61-.8,1.94.28,2.31,1.58,2.86,6.68,2.82,13.32,5.74,20.03,8.47,3.62,1.48,6.08,3.9,7.76,7.43,7.32,15.43,14.72,30.82,22.15,46.2.45.92.81,1.84,1.09,2.75,20.65-13.26,36.41-33.14,44.48-56.37-16.78-12.26-27.71-32.07-27.71-54.39ZM135.27,84.39c-12.43.07-22.54-10.33-22.66-23.3-.12-13.38,9.96-24.1,22.67-24.1,12.29,0,22.42,10.61,22.48,23.55.07,13.23-9.89,23.78-22.5,23.85Z" style="fill: url(#Nouvelle_nuance_de_dégradé_1-2);"/>
    </g>
  </g>
</svg>