<svg xmlns="http://www.w3.org/2000/svg" viewBox="0 0 102.93 90.64"><defs><style>.cls-1{fill:#fff;}</style></defs><g id="Calque_2" data-name="Calque 2"><g id="Calque_1-2" data-name="Calque 1"><path class="cls-1" d="M40.34,55.54c1.42-2.48,2.56-4.63,3.84-6.7A111.62,111.62,0,0,1,63.72,25.43,167.7,167.7,0,0,1,98.33.94c2.26-1.23,3.24-1.23,4.11-.13s.54,2.37-1.39,4.08c-25.26,22.48-42.62,49.9-51.52,82.6A10.19,10.19,0,0,1,49.11,89c-.8,1.86-2.3,2.22-3.89.9a14.38,14.38,0,0,1-1.48-1.54Q23.07,66,2.41,43.61A18.63,18.63,0,0,1,.59,41.55c-1.23-1.76-.46-3.42,1.7-3.72a11,11,0,0,1,1.52,0c6.12,0,12.24.06,18.36,0a5.22,5.22,0,0,1,4.45,2.09C30.36,44.29,34.22,48.64,38,53,38.69,53.78,39.39,54.51,40.34,55.54Z"/></g></g></svg>