<svg xmlns="http://www.w3.org/2000/svg" viewBox="0 0 105.08 96.42"><defs><style>.cls-1{fill:#fff;}.cls-2{fill:#7f7f7f;}.cls-3{fill:#141a26;}</style></defs><g id="Calque_2" data-name="Calque 2"><g id="Calque_1-2" data-name="Calque 1"><rect class="cls-1" x="75.53" width="19.22" height="14.66"/><path class="cls-2" d="M94.75,0h0a10.32,10.32,0,0,1,10.33,10.33v4.33H84.42V10.33A10.32,10.32,0,0,1,94.75,0Z"/><path class="cls-1" d="M10.33,0A10.32,10.32,0,0,0,0,10.33V82.82a13.6,13.6,0,0,0,13.6,13.6H70.82a13.6,13.6,0,0,0,13.6-13.6V0Z"/><path class="cls-3" d="M47.6,48.84,61.27,67.42H50.88L42.4,55.9,33.93,67.42H23.54L37.21,48.84,23.4,30.08H33.79l8.61,11.7L51,30.08h10.4Z"/></g></g></svg>