<svg xmlns="http://www.w3.org/2000/svg" viewBox="0 0 179.59 111.23"><defs><style>.cls-1{fill:#fff;}</style></defs><g id="Calque_2" data-name="Calque 2"><g id="Calque_1-2" data-name="Calque 1"><path class="cls-1" d="M0,51.16c10.13,5.34,20.88,8.39,31.83,11A8.23,8.23,0,0,1,36,65C40,70,43.65,75.16,47.46,80.23A8.6,8.6,0,0,0,51,83.14V65.25a388.68,388.68,0,0,0,76.87.07V84c1.55-1.53,2.36-2.19,3-3C135,75.75,139,70.41,143.13,65.2c1-1.2,2.3-2.58,3.68-2.89,11.3-2.51,22.37-5.61,32.78-11.22-5,13.9-13.32,25.5-24,35.45-15.73,14.65-34.53,22.52-55.81,24.25-23,1.87-44.82-2.12-64.32-15.25A94.21,94.21,0,0,1,0,51.16Z"/><path class="cls-1" d="M69,16.67,80.7,20.24a37.66,37.66,0,0,1-1.76,3.54,51.85,51.85,0,0,1-12,13.36C55.72,45.72,42.51,46,31.18,37.6A41.41,41.41,0,0,1,23,29.31C17.34,21.81,14.06,11,13.92,1,17.2.65,31.47,4.6,39.74,8.15c.74,10.42,4,15.59,10.94,17.52S63,25,69,16.67Z"/><path class="cls-1" d="M98.56,20.41l12.29-3.78c4.29,7.55,10.34,11.42,18.74,8.71,8-2.58,10.59-9,9.93-17.41L165.43,0a11.65,11.65,0,0,1,.41,2.52c-.84,9.55-3.33,18.62-8.93,26.51-6.84,9.63-16,15.07-28.18,14.57a18.62,18.62,0,0,1-3.86-.55C112.66,39.82,105.23,31.12,98.56,20.41Z"/></g></g></svg>