<svg xmlns="http://www.w3.org/2000/svg" viewBox="0 0 105.08 96.42"><defs><style>.cls-1{fill:#fff;}.cls-2{fill:#7f7f7f;}.cls-3{fill:#141a26;}</style></defs><g id="Calque_2" data-name="Calque 2"><g id="Calque_1-2" data-name="Calque 1"><path class="cls-1" d="M94.75,0H10.33A10.32,10.32,0,0,0,0,10.33V82.82a13.6,13.6,0,0,0,13.6,13.6H70.82a13.6,13.6,0,0,0,13.6-13.6V10.33A10.32,10.32,0,0,1,94.75,0Z"/><path class="cls-2" d="M94.75,0A10.32,10.32,0,0,0,84.42,10.33v4.33h20.66V10.33A10.32,10.32,0,0,0,94.75,0Z"/><path class="cls-3" d="M37,73.71c.14-3.2.21-10.51.21-14.91V55.41c0-3.91-.07-6.11-.21-8.95l-4.39-.64V43l14.87-4.72,1.22.76-.22,10.3V58.8c0,4.4.07,11.71.22,14.91ZM52.14,70.4v3.31H33.3V70.4L39.88,69h5.37Zm-15.42-43a5.71,5.71,0,0,1,6-5.65,5.66,5.66,0,1,1,0,11.3A5.71,5.71,0,0,1,36.72,27.4Z"/></g></g></svg>