<svg xmlns="http://www.w3.org/2000/svg" viewBox="0 0 141.1 147"><defs><style>.cls-1{fill:#fff;}</style></defs><g id="Calque_2" data-name="Calque 2"><g id="Calque_1-2" data-name="Calque 1"><path class="cls-1" d="M78.12,53.8c-5.38-.5-10.76-1.07-16.15-1.44-2.26-.15-5.15-1.48-6.62-.11S54,56.49,53.56,58.73c-1,4.76-1.94,9.55-3.05,14.3a6.31,6.31,0,0,1-5.3,5,6.58,6.58,0,0,1-6.83-2.64,6.69,6.69,0,0,1-1.25-5.16c1.34-9.47,2.65-18.94,4.12-28.39.58-3.75,3.27-6.06,7.19-6.19,13.67-.46,27.34-1,41-1.06,5.65,0,10.26,2.43,12.57,8.26,2.52,6.4,5.59,12.58,8.1,19,1.06,2.68,2.53,3.5,5.29,3.49,6,0,12,.29,18.07.52,4.64.18,7.6,2.88,7.62,6.84s-3,6.83-7.53,7q-13.2.45-26.39.77c-5.55.12-8.86-3.51-8.42-9a25.12,25.12,0,0,0-.09-5.61C97,72.26,94.28,78.19,91.79,84.21,91.17,85.72,92,86,93,86.44c5.19,2.19,10.36,4.46,15.58,6.59a11,11,0,0,1,6,5.77q8.53,18,17.22,35.93c1.57,3.24,2.05,6.38-.36,9.41-3.36,4.23-9.4,3.72-12.56-1.16q-9.33-14.44-18.48-29a7.77,7.77,0,0,0-4.78-3.66c-9.62-2.77-19.2-5.7-28.88-8.6.13,1,1,1.17,1.53,1.53,3.39,2.18,3.4,2.16,1.12,5.34l-14,19.6c-3.5,4.87-7,6-12.68,4q-18.27-6.37-36.51-12.82c-4.55-1.61-6.78-4.91-6.1-8.8.77-4.46,4.78-7.06,9.72-6,9.17,1.9,18.32,3.93,27.47,5.92,4.32,1,4.33,1,6.52-2.83,8.39-14.57,17.09-29,24.12-44.28a6,6,0,0,0,.33-.79c1.56-4.79,3.08-9.61,10.45-7.48Z"/><path class="cls-1" d="M124,18.31c.05,10.29-7.69,18.5-17.49,18.55S89,28.83,88.87,18.74C88.78,8.34,96.62,0,106.5,0,116.06,0,123.94,8.25,124,18.31Z"/></g></g></svg>